<svg width="24" height="24" viewBox="0 0 24 24" fill="none" xmlns="http://www.w3.org/2000/svg">
<path fill-rule="evenodd" clip-rule="evenodd" d="M19.2802 6.28033C19.5731 5.98744 19.5731 5.51256 19.2802 5.21967C18.9873 4.92678 18.5125 4.92678 18.2196 5.21967L12.2499 11.1893L6.28033 5.21967C5.98744 4.92678 5.51256 4.92678 5.21967 5.21967C4.92678 5.51256 4.92678 5.98744 5.21967 6.28033L11.1893 12.2499L5.49164 17.9476C5.19875 18.2405 5.19875 18.7154 5.49164 19.0083C5.78454 19.3011 6.25941 19.3011 6.5523 19.0083L12.2499 13.3106L17.9476 19.0083C18.2405 19.3011 18.7154 19.3011 19.0083 19.0083C19.3011 18.7154 19.3011 18.2405 19.0083 17.9476L13.3106 12.2499L19.2802 6.28033Z" fill="black"/>
</svg>
