<svg width="24" height="24" viewBox="0 0 24 24" fill="none" xmlns="http://www.w3.org/2000/svg">
<path fill-rule="evenodd" clip-rule="evenodd" d="M19.0631 11.7845C19.0631 16.0842 15.5788 19.569 11.2816 19.569C6.98437 19.569 3.5 16.0842 3.5 11.7845C3.5 7.48479 6.98437 4 11.2816 4C15.5788 4 19.0631 7.48479 19.0631 11.7845ZM17.816 18.3781C16.1387 20.0415 13.8301 21.069 11.2816 21.069C6.1555 21.069 2 16.9122 2 11.7845C2 6.65681 6.1555 2.5 11.2816 2.5C16.4076 2.5 20.5631 6.65681 20.5631 11.7845C20.5631 13.8215 19.9073 15.7053 18.7954 17.2361L21.7773 20.2189C22.0701 20.5119 22.0701 20.9868 21.7773 21.2798C21.4844 21.5727 21.0096 21.5727 20.7168 21.2798L17.816 18.3781Z" fill="black"/>
</svg>
