<svg width="24" height="24" viewBox="0 0 24 24" fill="none" xmlns="http://www.w3.org/2000/svg">
<path d="M9.04501 18.7353C9.04501 20.4018 10.3697 21.7544 12.002 21.7544C13.6343 21.7544 14.959 20.4018 14.959 18.7353" stroke="#111111" stroke-width="1.5" stroke-linecap="round" stroke-linejoin="round"/>
<path d="M18.4257 8.91219C18.4257 12.9982 19.8783 15.2456 20.6543 16.0749C20.8777 16.3087 21.0016 16.6193 21 16.9418C20.9998 17.1099 20.9663 17.2764 20.9014 17.4316C20.8365 17.5869 20.7414 17.7279 20.6217 17.8466C20.5019 17.9653 20.3597 18.0594 20.2033 18.1234C20.047 18.1875 19.8794 18.2203 19.7103 18.2199H4.28977C4.12063 18.2203 3.95308 18.1875 3.7967 18.1234C3.64031 18.0594 3.49817 17.9653 3.37838 17.8466C3.2586 17.7279 3.16353 17.5869 3.09862 17.4316C3.0337 17.2764 3.00021 17.1099 3.00006 16.9418C2.99693 16.6201 3.11872 16.3096 3.34006 16.0749C4.11605 15.2456 5.56862 12.9982 5.56862 8.91219C5.56723 7.44589 6.07996 6.02495 7.01859 4.89385C7.95723 3.76274 9.26307 2.9922 10.7115 2.7148C11.2481 2.62695 12.5137 2.50397 13.2829 2.7148C14.7313 2.9922 16.0371 3.76274 16.9757 4.89385C17.9144 6.02495 18.4271 7.44589 18.4257 8.91219Z" stroke="#111111" stroke-width="1.5"/>
</svg>
