<svg width="16" height="16" viewBox="0 0 16 16" fill="none" xmlns="http://www.w3.org/2000/svg">
<path d="M5.17539 7.21569L7.71569 1.5C8.22099 1.5 8.7056 1.70073 9.0629 2.05803C9.4202 2.41533 9.62093 2.89993 9.62093 3.40523V5.94554H13.2155C13.3996 5.94346 13.5819 5.98142 13.7499 6.05682C13.9179 6.13221 14.0675 6.24322 14.1883 6.38216C14.3091 6.52111 14.3983 6.68466 14.4496 6.86148C14.501 7.03831 14.5132 7.22418 14.4856 7.40622L13.6092 13.1219C13.5633 13.4248 13.4094 13.7009 13.176 13.8993C12.9426 14.0976 12.6454 14.205 12.3391 14.2015H5.17539M5.17539 7.21569V14.2015M5.17539 7.21569H3.27015C2.93329 7.21569 2.61022 7.34951 2.37202 7.58771C2.13382 7.82591 2 8.14898 2 8.48585V12.9314C2 13.2683 2.13382 13.5913 2.37202 13.8295C2.61022 14.0677 2.93329 14.2015 3.27015 14.2015H5.17539" stroke="#6F6F6F" stroke-width="1.25" stroke-linecap="round" stroke-linejoin="round"/>
</svg>
